# xmcd CD database file
#
# Track frame offsets:
#	150
#	21093
#	38793
#	59718
#	74267
#	97537
#	117872
#	138393
#	169292
#	192917
#
# Disc length: 2829 seconds
#
# Revision: 0
# Processed by: cddbd v1.5.1PL0 Copyright (c) Steve Scherf et al.
# Submitted via: CDex 1.51
#
DISCID=860b0b0a
DTITLE=The Kid Lopez Band - The Kid Lopez Band
DYEAR=1900
DGENRE=Blues
TTITLE0=Green River
TTITLE1=Continetal Breakfast
TTITLE2=Ho Po Da Doe
TTITLE3=Sweet Home Chicago
TTITLE4=Summer Nites Blues
TTITLE5=My My My
TTITLE6=Give It Up
TTITLE7=Louisiana
TTITLE8=Good Girl Blues
TTITLE9=Cissy Strut
EXTD=
EXTT0=
EXTT1=
EXTT2=
EXTT3=
EXTT4=
EXTT5=
EXTT6=
EXTT7=
EXTT8=
EXTT9=
PLAYORDER=
